<svg xmlns="http://www.w3.org/2000/svg" version="1.1" xmlns:xlink="http://www.w3.org/1999/xlink" width="200" height="200"><svg xmlns="http://www.w3.org/2000/svg" version="1.1" xmlns:xlink="http://www.w3.org/1999/xlink" viewBox="0 0 200 200"><rect width="200" height="200" fill="url('#gradient')"></rect><defs><linearGradient id="SvgjsLinearGradient1001" gradientTransform="rotate(0 0.5 0.5)"><stop offset="0%" stop-color="#eff3f1"></stop><stop offset="100%" stop-color="#eff3f1"></stop></linearGradient></defs><g><g fill="#353b44" transform="matrix(4.160598770382251,0,0,4.160598770382251,19.533197855719976,129.58123267940326)" stroke="#474759" stroke-width="0"><path d="M4.50-14.22L4.50-2.64L10.47-2.64L10.47 0L1.07 0L1.07-14.22L4.50-14.22ZM21.01 0L20.18-2.66L15.48-2.66L14.66 0L11.00 0L16.21-14.22L19.43-14.22L24.69 0L21.01 0ZM17.82-10.23L16.30-5.30L19.36-5.30L17.82-10.23ZM37.61-14.22L37.61 0L34.20 0L34.20-5.94L29.15-5.94L29.15 0L25.72 0L25.72-14.22L29.15-14.22L29.15-8.57L34.20-8.57L34.20-14.22L37.61-14.22Z"></path></g></g></svg><style>@media (prefers-color-scheme: light) { :root { filter: none; } }
@media (prefers-color-scheme: dark) { :root { filter: none; } }
</style></svg>